# xmcd
#
# Track frame offsets: 
#        150
#        6973
#        23139
#        41204
#        56771
#        66306
#        94987
#
# Disc length: 1413 seconds
#
# Revision: 0
# Processed by: cddbd v1.5.1PL0 Copyright (c) Steve Scherf et al.
# Submitted via: ExactAudioCopy v0.95a5
#
DISCID=5f058307
DTITLE=Various Artist - Elizabethtown - Songs From the Brown Hotel
DYEAR=2005
DGENRE=Rock
TTITLE0=Nancy Wilson - Same in Any Lingo
TTITLE1=Elvis Presley - Kentucky Rain [alternate take 9]
TTITLE2=My Morning Jacket - I Will Be There When You Die [live]
TTITLE3=Patty Griffin - Long Ride Home [demo]
TTITLE4=Bill Monroe and His Bluegrass Boys - Blue Moon of Kentucky
TTITLE5=Sun Kil Moon - Kentucky Woman
TTITLE6=data
EXTD=
EXTT0=
EXTT1=
EXTT2=
EXTT3=
EXTT4=
EXTT5=
EXTT6=
PLAYORDER=
